<svg width="35" height="35" viewBox="0 0 35 35" fill="none" xmlns="http://www.w3.org/2000/svg">
<path d="M22.5705 18.7981L24.7799 31.2318C24.8046 31.3783 24.7841 31.5287 24.721 31.6631C24.6579 31.7976 24.5553 31.9095 24.4269 31.984C24.2984 32.0586 24.1503 32.0921 24.0023 32.0802C23.8543 32.0682 23.7135 32.0114 23.5986 31.9173L18.3778 27.9987C18.1258 27.8104 17.8196 27.7087 17.505 27.7087C17.1904 27.7087 16.8842 27.8104 16.6322 27.9987L11.4026 31.9158C11.2878 32.0098 11.1472 32.0665 10.9994 32.0785C10.8515 32.0904 10.7036 32.057 10.5752 31.9827C10.4469 31.9084 10.3442 31.7967 10.281 31.6625C10.2178 31.5284 10.197 31.3781 10.2213 31.2318L12.4293 18.7981" stroke="#8B5CF6" stroke-width="3" stroke-linecap="round" stroke-linejoin="round"/>
<path d="M17.5 20.4167C22.3325 20.4167 26.25 16.4992 26.25 11.6667C26.25 6.83426 22.3325 2.91675 17.5 2.91675C12.6675 2.91675 8.75 6.83426 8.75 11.6667C8.75 16.4992 12.6675 20.4167 17.5 20.4167Z" stroke="#8B5CF6" stroke-width="3" stroke-linecap="round" stroke-linejoin="round"/>
</svg>
